<?xml version="1.0" encoding="utf-8"?>
<svg width="753" height="184" viewBox="0 0 753 184" fill="none" xmlns="http://www.w3.org/2000/svg">
  <g>
    <path d="M9.49219 141.696L9.49219 40.903L72.8789 40.903L72.8789 58.1647L28.5117 58.1647L28.5117 82.528L69.3984 82.528L69.3984 99.7897L28.5117 99.7897L28.5117 141.696L9.49219 141.696ZM86.9858 141.696L86.9858 70.2585L104.845 70.2585L104.845 78.3444L107.412 78.3444Q108.994 74.0202 112.65 72.0163Q116.341 69.9772 121.263 69.9772L129.876 69.9772L129.876 86.114L120.947 86.114Q114.056 86.114 109.591 89.8054Q105.126 93.4616 105.126 101.091L105.126 141.696L86.9858 141.696ZM164.465 143.7Q156.801 143.7 150.754 141.063Q144.708 138.391 141.192 133.294Q137.676 128.161 137.676 120.813Q137.676 109.739 145.446 104.114Q153.215 98.489 165.309 98.489L184.891 98.489L184.891 94.4812Q184.891 89.4187 181.727 86.1843Q178.563 82.9499 171.637 82.9499Q164.887 82.9499 161.547 86.0437Q158.243 89.1374 157.258 94.0241L140.559 88.3991Q142.282 82.9499 146.079 78.4147Q149.911 73.8796 156.309 71.0671Q162.708 68.2546 171.919 68.2546Q186.051 68.2546 194.243 75.321Q202.469 82.3522 202.469 95.7468L202.469 122.395Q202.469 126.719 206.512 126.719L212.243 126.719L212.243 141.696L200.149 141.696Q194.84 141.696 191.36 139.13Q187.915 136.528 187.915 132.204L187.915 132.063L185.172 132.063Q184.61 133.786 182.571 136.598Q180.567 139.376 176.243 141.555Q171.919 143.7 164.465 143.7ZM167.629 129.04Q175.258 129.04 180.075 124.786Q184.891 120.532 184.891 113.466L184.891 112.024L166.61 112.024Q161.583 112.024 158.7 114.204Q155.817 116.348 155.817 120.251Q155.817 124.118 158.84 126.579Q161.864 129.04 167.629 129.04ZM225.514 141.696L225.514 70.2585L243.373 70.2585L243.373 78.0632L245.94 78.0632Q247.838 74.4421 252.127 71.8054Q256.451 69.1335 263.518 69.1335Q271.147 69.1335 275.752 72.0866Q280.358 75.0397 282.819 79.7858L285.42 79.7858Q287.846 75.1804 292.311 72.1569Q296.776 69.1335 305.002 69.1335Q311.611 69.1335 316.99 71.946Q322.404 74.7233 325.639 80.4187Q328.908 86.114 328.908 94.7624L328.908 141.696L310.768 141.696L310.768 96.0632Q310.768 90.1569 307.744 87.2038Q304.721 84.2507 299.236 84.2507Q293.049 84.2507 289.639 88.2233Q286.264 92.1608 286.264 99.5085L286.264 141.696L268.123 141.696L268.123 96.0632Q268.123 90.1569 265.1 87.2038Q262.076 84.2507 256.592 84.2507Q250.404 84.2507 247.029 88.2233Q243.654 92.1608 243.654 99.5085L243.654 141.696L225.514 141.696ZM348.49 141.696L348.49 70.2585L366.63 70.2585L366.63 141.696L348.49 141.696ZM357.56 61.9265Q352.638 61.9265 349.263 58.7624Q345.888 55.5983 345.888 50.3952Q345.888 45.2272 349.263 42.0632Q352.638 38.864 357.56 38.864Q362.587 38.864 365.892 42.0632Q369.197 45.2272 369.197 50.3952Q369.197 55.5983 365.892 58.7624Q362.587 61.9265 357.56 61.9265ZM386.794 141.696L386.794 70.2585L404.653 70.2585L404.653 79.6452L407.22 79.6452Q408.977 75.8835 413.723 72.5085Q418.47 69.1335 428.102 69.1335Q436.47 69.1335 442.727 72.9655Q448.985 76.7624 452.431 83.4772Q455.911 90.1569 455.911 99.0866L455.911 141.696L437.77 141.696L437.77 100.528Q437.77 92.4421 433.798 88.4343Q429.825 84.3913 422.513 84.3913Q414.145 84.3913 409.54 89.946Q404.934 95.4655 404.934 105.415L404.934 141.696L386.794 141.696ZM472.017 106.258L472.017 103.973Q472.017 92.7233 476.482 84.7429Q480.947 76.7624 488.365 72.5085Q495.783 68.2546 504.572 68.2546Q514.381 68.2546 519.408 71.7351Q524.435 75.1804 526.756 78.9069L529.357 78.9069L529.357 70.2585L547.217 70.2585L547.217 154.352Q547.217 161.7 542.892 166.094Q538.568 170.489 531.361 170.489L483.549 170.489L483.549 154.669L525.033 154.669Q529.041 154.669 529.041 150.344L529.041 131.747L526.474 131.747Q524.295 135.368 519.338 138.673Q514.381 141.977 504.572 141.977Q495.783 141.977 488.365 137.758Q480.947 133.505 476.482 125.524Q472.017 117.508 472.017 106.258ZM509.775 126.157Q518.107 126.157 523.732 120.848Q529.357 115.505 529.357 105.837L529.357 104.395Q529.357 94.6218 523.802 89.3835Q518.248 84.1101 509.775 84.1101Q501.408 84.1101 495.783 89.3835Q490.193 94.6218 490.193 104.395L490.193 105.837Q490.193 115.505 495.783 120.848Q501.408 126.157 509.775 126.157Z" fill="#FFFFFF" transform="translate(195 0)" />
    <g transform="translate(0 11)">
      <rect width="21.752" height="93.663" fill="#FFFFFF" fill-rule="evenodd" transform="translate(0 21.833)" />
      <rect width="21.752" height="115.496" fill="#FFFFFF" fill-rule="evenodd" transform="translate(122.248 46.504)" />
      <path d="M143.899 0L143.899 21.8329L0 21.8329L0 2.47504e-05L143.899 0Z" fill="#FFFFFF" fill-rule="evenodd" transform="translate(0.101 0)" />
      <rect width="29.801" height="29.911" fill="#FFFFFF" fill-rule="evenodd" transform="translate(56.991 65.935)" />
      <path d="M0 21.8329L4.05168e-07 0L122.248 0L122.248 21.8329L0 21.8329Z" fill="#FFFFFF" fill-rule="evenodd" transform="translate(0 140.167)" />
    </g>
  </g>
</svg>