<?xml version="1.0" encoding="utf-8"?>
<svg width="25" height="25" viewBox="0 0 25 25" fill="none" xmlns="http://www.w3.org/2000/svg">
  <g>
    <path d="M12.5 21.875C12.5 21.875 23.0584 11.3166 23.0584 11.3166C24.3016 10.0734 25 8.38728 25 6.62913C25 6.62913 25 6.33178 25 6.33178C25 2.83484 22.1652 0 18.6683 0C16.7447 0 14.9255 0.874359 13.7239 2.37634C13.7239 2.37634 12.5 3.90625 12.5 3.90625C12.5 3.90625 11.2761 2.37634 11.2761 2.37634C10.0745 0.874359 8.25528 0 6.33178 0C2.83484 0 0 2.83484 0 6.33178C0 6.33178 0 6.62913 0 6.62913C0 8.38728 0.698422 10.0734 1.94162 11.3166C1.94162 11.3166 12.5 21.875 12.5 21.875Z" fill="#FF0000" fill-rule="evenodd" transform="translate(0 1.563)" />
  </g>
</svg>