<?xml version="1.0" encoding="utf-8"?>
<svg width="30" height="30" viewBox="0 0 30 30" fill="none" xmlns="http://www.w3.org/2000/svg">
  <g>
    <path d="M2.5 13.3297C2.5 19.5429 7.5368 24.5797 13.75 24.5797C17.861 24.5797 21.4607 22.3734 23.4235 19.0779C19.1643 20.4515 14.119 19.7339 10.7322 16.3472C7.31873 12.9336 6.66125 7.89555 8.0875 3.65652C4.76243 5.63945 2.5 9.27701 2.5 13.3297ZM24.7375 15.7717C25.7693 15.168 27.3225 15.8514 27.0037 17.0036C25.3967 22.8137 20.0716 27.0797 13.75 27.0797C6.15609 27.0797 1.19209e-07 20.9236 1.19209e-07 13.3297C1.19209e-07 7.02629 4.42288 1.61342 10.2728 0.040342C11.4278 -0.270263 12.0843 1.28258 11.4588 2.30205C9.12904 6.09856 9.29364 11.373 12.5 14.5794C15.6686 17.7481 20.9243 18.0031 24.7375 15.7717Z" fill="#000000" fill-rule="evenodd" transform="translate(1.746 1.21)" />
  </g>
</svg>